<svg width="176" height="19" viewBox="0 0 176 19" xmlns="http://www.w3.org/2000/svg" fill="none"><path d="M14.238 13.828c0 .649-.121 1.207-.363 1.676-.234.469-.551.867-.949 1.195-.399.328-.859.598-1.383.809-.516.203-1.055.363-1.617.48-.563.117-1.129.195-1.699.234-.562.039-1.09.058-1.582.058-.484 0-.988-.019-1.512-.058-.516-.031-1.031-.09-1.547-.176s-1.023-.199-1.523-.34c-.5-.148-.973-.332-1.418-.551l-.023-15.094c.437-.18.902-.34 1.395-.48.492-.148.992-.27 1.5-.363.516-.102 1.027-.176 1.535-.223.508-.055 1-.082 1.477-.082.555 0 1.113.035 1.676.105.57.07 1.117.188 1.641.352.523.164 1.012.379 1.465.645.453.258.848.578 1.184.961.344.383.609.828.797 1.336.195.508.293 1.094.293 1.758 0 .438-.063.848-.188 1.23-.125.383-.305.727-.539 1.031-.234.305-.52.566-.855.785-.336.211-.715.367-1.137.469.508.133.969.328 1.383.586.422.258.777.57 1.066.938.297.367.523.781.68 1.242.164.461.246.953.246 1.476zm-5.953-6.68c0-.227-.047-.418-.141-.574-.094-.164-.211-.297-.352-.398-.133-.102-.281-.176-.445-.223-.156-.047-.297-.07-.422-.07-.156 0-.309.023-.457.07-.148.047-.293.102-.434.164l-.07 2.602c.18 0 .402-.016.668-.047s.52-.098.762-.199c.25-.109.461-.266.633-.469.172-.211.258-.496.258-.855zm-1.664 3.82c-.227 0-.445.023-.656.07l-.047 2.672.34.07.34.024c.164 0 .344-.016.539-.047.195-.039.379-.109.551-.211.172-.109.313-.254.422-.434.117-.18.176-.418.176-.715s-.059-.539-.176-.726c-.109-.188-.246-.332-.41-.434-.164-.109-.344-.18-.539-.211-.195-.039-.375-.059-.539-.059zm21.094-2.438c0 .68-.047 1.359-.141 2.039-1.336.086-2.664.227-3.984.422l-3.961.563c.203.563.519 1.012.949 1.348.438.336.957.504 1.559.504.313 0 .652-.059 1.019-.176.375-.117.746-.262 1.113-.434.367-.18.719-.371 1.055-.574.336-.203.625-.387.867-.551l-.563 5.32c-.305.234-.637.434-.996.598-.352.164-.719.297-1.102.398-.383.102-.769.176-1.16.223-.391.047-.773.07-1.148.07-.773 0-1.48-.105-2.121-.316-.641-.211-1.223-.504-1.746-.879-.516-.383-.969-.832-1.359-1.348-.391-.516-.715-1.078-.973-1.688-.258-.609-.453-1.254-.586-1.934-.133-.68-.199-1.367-.199-2.063 0-.727.066-1.453.199-2.18.133-.727.332-1.426.598-2.098.273-.672.613-1.293 1.02-1.863.414-.578.895-1.082 1.441-1.512.547-.43 1.164-.766 1.852-1.008.695-.242 1.461-.363 2.297-.363.695 0 1.328.098 1.898.293.578.188 1.09.453 1.535.797.453.336.844.738 1.172 1.207.336.469.609.984.82 1.547.219.555.379 1.145.48 1.77.109.617.164 1.246.164 1.887zm-4.688-.609c0-.219-.023-.441-.07-.668-.047-.234-.125-.445-.234-.633-.102-.188-.238-.34-.41-.457-.172-.125-.387-.188-.645-.188-.313 0-.59.086-.832.258-.234.164-.438.375-.609.633-.172.25-.313.523-.422.82-.109.297-.191.57-.246.82l3.469-.328v-.258zm17.473 4.078c0 1.07-.188 1.996-.563 2.777-.367.774-.875 1.414-1.523 1.922-.641.5-1.395.871-2.262 1.113-.859.234-1.785.352-2.777.352-.383 0-.805-.051-1.266-.152-.453-.102-.914-.227-1.383-.375-.469-.156-.922-.32-1.359-.492-.43-.18-.813-.348-1.148-.504l.516-4.594c.664.398 1.398.703 2.203.914.813.203 1.609.305 2.391.305l.539-.012c.211-.016.41-.051.598-.105.195-.063.359-.152.492-.27.133-.117.199-.285.199-.504 0-.148-.047-.273-.141-.375-.094-.109-.215-.195-.363-.258-.148-.07-.316-.121-.504-.152-.188-.039-.371-.066-.551-.082-.18-.016-.348-.023-.504-.023h-.375c-.672 0-1.285-.106-1.84-.316-.547-.211-1.02-.508-1.418-.891-.391-.391-.695-.859-.914-1.406-.219-.555-.328-1.168-.328-1.84 0-.922.183-1.746.551-2.473.375-.734.871-1.355 1.488-1.863.625-.516 1.34-.91 2.144-1.184.805-.273 1.637-.41 2.496-.41.383 0 .777.016 1.184.047.406.023.809.07 1.207.141.406.07.801.16 1.184.27.383.109.746.246 1.09.41l-.445 4.758c-.531-.18-1.09-.328-1.676-.445-.578-.125-1.145-.188-1.699-.188l-.398.012c-.156 0-.324.012-.504.035-.172.016-.348.043-.527.082-.18.039-.34.094-.48.164-.141.063-.254.148-.34.258-.086.109-.125.238-.117.387.008.172.07.305.188.398.125.094.281.164.469.211.195.039.406.059.633.059l.691-.012.633-.035c.195-.016.355-.02.48-.012.625.039 1.187.172 1.687.398.5.227.922.527 1.266.902.352.375.617.824.797 1.348.187.516.281 1.086.281 1.711zm12.891-10.523l-.117 4.969-3.492.141-.422 10.875-4.945.258-.445-10.875-3.492.188.141-5.531 12.773-.023zm81.07 5.719c0 .758-.113 1.43-.34 2.016-.226.586-.539 1.102-.937 1.547-.391.438-.852.809-1.383 1.113-.531.297-1.102.543-1.711.738-.602.188-1.227.328-1.875.422-.649.086-1.285.133-1.91.141v4.992h-5.461v-2.602c.008-.844.011-1.68.011-2.508.008-.836.012-1.676.012-2.52l.024-2.613c.015-.953.019-1.906.011-2.859-.007-.953.012-1.914.059-2.883 1-.297 2-.52 3-.668 1-.148 2.031-.223 3.094-.223.601 0 1.203.051 1.804.152.602.094 1.176.246 1.723.457.555.211 1.066.477 1.535.797.477.313.887.688 1.231 1.125.343.438.613.938.808 1.5.203.563.305 1.188.305 1.875zm-5.203.398c0-.508-.156-.902-.469-1.184-.305-.289-.703-.434-1.195-.434-.164 0-.336.016-.516.047-.172.023-.336.055-.492.094l-.141 3.422.317.023h.316c.281 0 .551-.047.809-.141.265-.094.5-.227.703-.398.203-.18.363-.387.48-.621.125-.242.188-.512.188-.809zm16.148 4.195l-.492 5.203-9.867.773.375-16.734h6.094l-.868 10.758h4.758zm15.328 5.203l-5.812.75-.703-2.648h-2.672l-.586 2.648-5.977-.586 4.664-15.609 6.516-.328 4.57 15.773zm-6.937-5.484l-.891-4.078-.867 4.078h1.758zm21.726.563c0 .883-.011 1.758-.035 2.625-.015.859-.043 1.727-.082 2.602l-6.75-.117c.235-1.383.438-2.762.61-4.137.172-1.383.257-2.777.257-4.184l-.011-.492c-.008-.227-.024-.48-.047-.762-.024-.289-.059-.582-.106-.879-.039-.305-.097-.582-.175-.832-.071-.25-.161-.453-.27-.609-.102-.164-.226-.246-.375-.246-.266 0-.492.078-.68.234-.179.156-.332.359-.457.609-.117.242-.211.516-.281.82-.07.305-.125.609-.164.914-.031.305-.055.594-.07.867l-.012.656c-.039 1.383-.07 2.758-.094 4.125-.023 1.359-.054 2.734-.093 4.125l-5.977.258c.156-2.758.305-5.5.445-8.227.149-2.727.266-5.469.352-8.227l5.531-.281-.047 1.875c.219-.266.453-.516.703-.75.258-.234.532-.434.821-.598.289-.172.593-.305.914-.398.328-.102.672-.152 1.031-.152.664 0 1.246.109 1.746.328.5.219.93.516 1.289.891.359.375.66.82.902 1.336.243.508.438 1.051.586 1.629.149.578.262 1.184.34 1.816.078.625.129 1.242.153 1.852.031.609.046 1.199.046 1.77v1.559z" fill="#333"/><path d="M71.156 1.477l-.117 4.969-3.492.141-.422 10.875-4.945.258-.445-10.875-3.492.188.141-5.531 12.773-.023zm14.918 7.547c0 .711-.082 1.398-.246 2.062-.164.656-.402 1.274-.715 1.852-.305.578-.68 1.109-1.125 1.594-.438.477-.934.887-1.488 1.23-.547.344-1.144.613-1.793.809-.648.188-1.336.281-2.063.281-.703 0-1.375-.09-2.016-.27-.633-.18-1.227-.43-1.781-.75-.555-.328-1.059-.719-1.512-1.172-.445-.461-.828-.969-1.148-1.524-.313-.563-.559-1.164-.738-1.805-.172-.641-.258-1.309-.258-2.004 0-.68.082-1.344.246-1.992.164-.656.398-1.273.703-1.852.313-.578.688-1.109 1.125-1.594.438-.484.926-.902 1.465-1.254.547-.352 1.137-.625 1.769-.82.633-.195 1.301-.293 2.004-.293 1.133 0 2.164.176 3.094.527.938.352 1.734.855 2.391 1.512.664.648 1.176 1.438 1.535 2.367.367.922.551 1.953.551 3.094zm-5.203.305c0-.336-.051-.66-.152-.973-.094-.32-.234-.602-.422-.844-.188-.25-.422-.449-.703-.598-.273-.156-.59-.234-.949-.234-.367 0-.695.066-.984.199-.289.133-.539.316-.75.551-.203.227-.359.496-.469.809-.109.305-.164.629-.164.973 0 .328.047.656.141.984.094.328.234.625.422.891.188.266.418.48.691.645.281.164.606.246.973.246s.695-.07.984-.211c.297-.148.547-.344.75-.586.203-.25.359-.535.469-.856.109-.32.164-.652.164-.996zm19.992-7.828c-.351 2.75-.652 5.488-.902 8.215-.25 2.719-.488 5.457-.715 8.215l-4.805.351.211-1.805c-.156.18-.34.336-.551.469-.203.133-.422.242-.656.328-.234.078-.477.137-.727.176-.25.031-.488.043-.715.035-.531-.008-1.031-.109-1.5-.305-.469-.203-.898-.469-1.289-.797-.391-.336-.742-.723-1.055-1.16-.313-.445-.578-.91-.797-1.395-.211-.492-.375-.992-.492-1.5-.109-.508-.164-1-.164-1.476 0-.703.012-1.43.035-2.18.031-.758.082-1.516.152-2.273.07-.758.16-1.508.27-2.25.117-.742.262-1.453.434-2.133.953.047 1.91.09 2.871.129.961.039 1.918.051 2.871.035l-.539 2.051c-.172.68-.328 1.367-.469 2.063-.141.688-.254 1.379-.34 2.074-.086.695-.129 1.398-.129 2.109l.023.703c.016.305.055.605.117.902.07.297.172.559.305.785.141.219.336.328.586.328.297 0 .563-.125.797-.375.234-.258.441-.601.621-1.031.18-.43.332-.926.457-1.488.133-.563.242-1.148.328-1.758.094-.617.168-1.238.223-1.863.055-.625.094-1.211.117-1.758.031-.555.051-1.051.059-1.488.016-.438.023-.777.023-1.02l-.012-.457-.035-.457c.508.016 1.012.027 1.512.035.5.008 1.004.012 1.512.012h1.172c.398-.008.797-.023 1.195-.047zm14.438 5.203c0 .609-.055 1.164-.164 1.664-.102.492-.266.945-.492 1.359-.227.414-.52.797-.879 1.148-.36.352-.793.688-1.301 1.008l2.789 4.969-5.274 1.031-1.804-4.992-1.453.047-.211 4.875h-5.039c.039-1.781.074-3.555.105-5.32.039-1.766.082-3.539.129-5.32l.047-2.672c.016-.883.047-1.773.094-2.672.547-.203 1.086-.371 1.617-.504.531-.133 1.062-.234 1.594-.305.539-.078 1.082-.129 1.629-.152.554-.031 1.121-.047 1.699-.047.89 0 1.75.125 2.578.375.836.242 1.574.609 2.215 1.102.64.492 1.152 1.105 1.535 1.84.39.734.586 1.59.586 2.566zm-5.25.375c0-.328-.047-.629-.141-.902-.086-.273-.219-.508-.398-.703-.172-.203-.391-.359-.657-.469-.257-.117-.562-.176-.914-.176-.156 0-.308.012-.457.035-.148.016-.293.043-.433.082l-.188 4.359h.282c.335 0 .675-.043 1.019-.129.352-.086.664-.219.938-.398.281-.18.507-.41.679-.691.18-.281.27-.617.27-1.008z" fill="#EC1F46"/></svg>