<svg width="18" height="14" viewBox="0 0 18 14" xmlns="http://www.w3.org/2000/svg" fill="none"><path d="M15.667.333h-13.333c-.917 0-1.658.75-1.658 1.667l-.008 10c0 .917.75 1.667 1.667 1.667h13.333c.917 0 1.667-.75 1.667-1.667v-10c0-.917-.75-1.667-1.667-1.667zm-.333 3.542l-5.892 3.683c-.267.167-.617.167-.883 0l-5.892-3.683c-.084-.047-.157-.11-.215-.186-.058-.076-.101-.163-.124-.256-.024-.093-.028-.19-.014-.284.015-.095.048-.185.099-.267.051-.081.118-.151.196-.206.079-.055.168-.093.261-.112.094-.019.191-.019.285 0 .094.019.183.057.262.112l5.583 3.492 5.583-3.492c.079-.055.168-.093.262-.112.094-.019.191-.019.285 0 .094.019.183.058.261.112.079.055.146.125.196.206.051.081.085.172.099.267.015.095.01.191-.014.284-.024.093-.066.18-.124.256-.058.076-.132.139-.215.186z" fill="#BDBDBD"/></svg>