<svg width="14" height="14" viewBox="0 0 14 14" xmlns="http://www.w3.org/2000/svg" fill="none"><path fill-rule="evenodd" clip-rule="evenodd" d="M6.642.706c.211-.164.506-.164.716 0l5.25 4.083c.142.111.225.28.225.46v6.417c0 .464-.184.909-.512 1.237-.328.328-.773.513-1.238.513h-8.167c-.464 0-.909-.184-1.237-.513-.328-.328-.513-.773-.513-1.237v-6.417c0-.18.083-.35.225-.46l5.25-4.083zm-4.309 4.829v6.131c0 .155.061.303.171.412.109.109.258.171.412.171h8.167c.155 0 .303-.062.413-.171.109-.109.171-.258.171-.412v-6.131l-4.667-3.63-4.667 3.63zm2.334 1.465c0-.322.261-.583.583-.583h3.5c.322 0 .583.261.583.583v5.833c0 .322-.261.583-.583.583-.322 0-.583-.261-.583-.583v-5.25h-2.333v5.25c0 .322-.261.583-.583.583-.322 0-.583-.261-.583-.583v-5.833z" fill="#fff"/></svg>