<svg width="20" height="20" viewBox="0 0 20 20" xmlns="http://www.w3.org/2000/svg" fill="none"><path d="M10 20c-1.354 0-2.65-.264-3.887-.791s-2.301-1.237-3.193-2.129c-.892-.892-1.602-1.956-2.129-3.193-.527-1.237-.791-2.532-.791-3.887 0-1.354.264-2.65.791-3.887s1.237-2.301 2.129-3.193c.892-.892 1.956-1.602 3.193-2.129 1.237-.527 2.533-.791 3.887-.791s2.65.264 3.887.791 2.301 1.237 3.193 2.129c.892.892 1.601 1.956 2.129 3.193.527 1.237.791 2.533.791 3.887s-.264 2.65-.791 3.887-1.237 2.301-2.129 3.193c-.892.892-1.956 1.601-3.193 2.129-1.237.527-2.532.791-3.887.791zm5-13.75c0-.339-.12-.632-.361-.879s-.537-.371-.889-.371h-7.5c-.339 0-.632.124-.879.371s-.371.54-.371.879v1.25h2.227c.755-.833 1.68-1.25 2.773-1.25 1.094 0 2.018.417 2.773 1.25h2.227v-1.25zm-7.5 3.75c0 .69.244 1.279.732 1.768.488.488 1.077.732 1.768.732.69 0 1.279-.244 1.768-.732.488-.488.732-1.078.732-1.768s-.244-1.279-.732-1.768c-.488-.488-1.078-.732-1.768-.732s-1.279.244-1.768.732c-.488.488-.732 1.077-.732 1.768zm7.5-1.25h-1.484c.156.43.234.846.234 1.25 0 1.042-.365 1.927-1.094 2.656-.729.729-1.614 1.094-2.656 1.094s-1.927-.365-2.656-1.094c-.729-.729-1.094-1.614-1.094-2.656 0-.404.078-.82.234-1.25h-1.484v5c0 .352.12.648.361.889s.537.361.889.361h7.5c.352 0 .648-.12.889-.361s.361-.537.361-.889v-5z" fill="#BDBDBD"/></svg>