<svg width="20" height="20" viewBox="0 0 20 20" xmlns="http://www.w3.org/2000/svg" fill="none"><path d="M17.167 9.541h1.917c0-4.916-3.712-8.624-8.635-8.624v1.917c3.893 0 6.718 2.82 6.718 6.707zm-6.709-2.874c2.015 0 2.875.86 2.875 2.875h1.917c0-3.091-1.701-4.792-4.792-4.792v1.917zm3.279 5.216c-.184-.167-.426-.257-.675-.249-.249.008-.485.112-.658.29l-2.293 2.359c-.552-.105-1.662-.451-2.804-1.591-1.142-1.143-1.488-2.256-1.591-2.804l2.357-2.294c.179-.173.283-.409.291-.658.008-.249-.082-.491-.249-.675l-3.541-3.894c-.168-.185-.401-.297-.65-.312-.249-.016-.494.067-.683.229l-2.08 1.783c-.166.166-.265.388-.278.622-.014.24-.288 5.915 4.112 10.317 3.839 3.838 8.648 4.119 9.972 4.119l.344-.008c.234-.013.455-.113.621-.279l1.783-2.081c.162-.189.245-.434.229-.683-.015-.249-.127-.482-.312-.65l-3.895-3.542z" fill="#BDBDBD"/></svg>