<svg width="8" height="8" viewBox="0 0 8 8" xmlns="http://www.w3.org/2000/svg" fill="none"><path fill-rule="evenodd" clip-rule="evenodd" d="M4 .333c.127 0 .243.072.299.186l.953 1.93 2.13.311c.126.018.23.106.269.227.039.121.006.253-.085.342l-1.541 1.501.364 2.121c.021.125-.03.251-.133.326-.103.075-.239.084-.351.025l-1.905-1.002-1.905 1.002c-.112.059-.248.049-.351-.025-.103-.075-.154-.201-.133-.326l.364-2.121-1.541-1.501c-.091-.089-.124-.221-.085-.342.039-.121.143-.209.269-.227l2.13-.311.953-1.93c.056-.114.172-.186.299-.186zm0 1.086l-.731 1.481c-.049.098-.142.166-.251.182l-1.635.239 1.183 1.152c.079.077.115.187.096.295l-.279 1.628 1.462-.769c.097-.051.213-.051.31 0l1.462.769-.279-1.628c-.019-.108.017-.219.096-.295l1.183-1.152-1.635-.239c-.108-.016-.202-.084-.251-.182l-.731-1.481z" fill="#F2994A"/><path d="M2.333 5l-1.333-2 2-.333 1-1.667 1 1.667 2 .667-1.333 1.333.333 2.333-2-1-2 1 .333-2z" fill="#F2994A"/></svg>