<svg width="14" height="14" viewBox="0 0 14 14" xmlns="http://www.w3.org/2000/svg" fill="none"><path fill-rule="evenodd" clip-rule="evenodd" d="M2.604 9.021c.547-.547 1.289-.854 2.062-.854h4.667c.774 0 1.515.307 2.062.854.547.547.854 1.289.854 2.062v1.167c0 .322-.261.583-.583.583-.322 0-.583-.261-.583-.583v-1.167c0-.464-.184-.909-.512-1.237-.328-.328-.773-.513-1.237-.513h-4.667c-.464 0-.909.184-1.237.513-.328.328-.513.773-.513 1.237v1.167c0 .322-.261.583-.583.583-.322 0-.583-.261-.583-.583v-1.167c0-.774.307-1.515.854-2.062zm4.396-6.688c-.967 0-1.75.784-1.75 1.75s.783 1.75 1.75 1.75c.966 0 1.75-.784 1.75-1.75s-.783-1.75-1.75-1.75zm-2.917 1.75c0-1.611 1.306-2.917 2.917-2.917 1.611 0 2.917 1.306 2.917 2.917 0 1.611-1.306 2.917-2.917 2.917-1.611 0-2.917-1.306-2.917-2.917z" fill="#fff"/></svg>