<svg width="153" height="175" viewBox="0 0 153 175" xmlns="http://www.w3.org/2000/svg" fill="none"><path d="M37.969 34.875c0 1.729-.323 3.219-.969 4.469-.625 1.25-1.469 2.312-2.531 3.187-1.063.875-2.292 1.594-3.688 2.156-1.375.542-2.812.969-4.312 1.281-1.5.312-3.011.521-4.531.625-1.5.104-2.906.156-4.219.156-1.292 0-2.636-.052-4.031-.156-1.375-.083-2.75-.24-4.125-.469-1.375-.229-2.729-.531-4.063-.906-1.333-.396-2.594-.886-3.781-1.469l-.063-40.25c1.167-.479 2.406-.906 3.719-1.281 1.313-.396 2.646-.719 4-.969 1.375-.271 2.74-.469 4.094-.594 1.354-.146 2.667-.219 3.937-.219 1.479 0 2.969.094 4.469.281 1.521.188 2.979.5 4.375.938 1.396.438 2.698 1.01 3.906 1.719 1.208.688 2.261 1.542 3.156 2.563.917 1.021 1.625 2.208 2.125 3.563.521 1.354.781 2.917.781 4.688 0 1.167-.167 2.26-.5 3.281-.333 1.021-.813 1.937-1.438 2.75-.625.812-1.385 1.51-2.281 2.094-.896.563-1.906.979-3.031 1.25 1.354.354 2.583.875 3.687 1.563 1.125.688 2.073 1.521 2.844 2.5.792.979 1.396 2.083 1.813 3.313.438 1.229.656 2.542.656 3.938zm-15.875-17.813c0-.604-.125-1.115-.375-1.531-.25-.437-.563-.792-.938-1.062-.354-.271-.75-.469-1.187-.594-.417-.125-.792-.188-1.125-.188-.417 0-.823.063-1.219.188-.396.125-.781.271-1.156.438l-.188 6.938c.479 0 1.073-.042 1.781-.125.708-.083 1.385-.26 2.031-.531.667-.292 1.229-.708 1.687-1.25.458-.563.688-1.323.688-2.281zm-4.438 10.188c-.604 0-1.187.063-1.75.188l-.125 7.125.906.188c.313.042.615.063.906.063.437 0 .917-.042 1.437-.125.521-.104 1.011-.292 1.469-.563.458-.292.833-.677 1.125-1.156.313-.479.469-1.115.469-1.906 0-.792-.156-1.438-.469-1.938-.292-.5-.656-.885-1.094-1.156-.437-.292-.917-.479-1.437-.563-.521-.104-1-.156-1.438-.156zm56.25-6.5c0 1.813-.125 3.625-.375 5.438-3.562.229-7.104.604-10.625 1.125l-10.562 1.5c.542 1.5 1.385 2.698 2.531 3.594 1.167.896 2.552 1.344 4.156 1.344.833 0 1.74-.156 2.719-.469 1-.312 1.99-.698 2.969-1.156.979-.479 1.917-.99 2.812-1.531.896-.542 1.667-1.031 2.313-1.469l-1.5 14.188c-.813.625-1.698 1.156-2.656 1.594-.938.438-1.917.792-2.938 1.063-1.021.271-2.052.469-3.094.594-1.042.125-2.062.188-3.062.188-2.063 0-3.948-.281-5.656-.844-1.708-.562-3.26-1.344-4.656-2.344-1.375-1.021-2.583-2.219-3.625-3.594-1.042-1.375-1.906-2.875-2.594-4.5s-1.208-3.344-1.563-5.156c-.354-1.813-.531-3.646-.531-5.5 0-1.938.177-3.875.531-5.813.354-1.938.885-3.802 1.594-5.594.729-1.792 1.635-3.448 2.719-4.969 1.104-1.542 2.385-2.885 3.844-4.031 1.458-1.146 3.104-2.042 4.938-2.688 1.854-.646 3.896-.969 6.125-.969 1.854 0 3.542.26 5.062.781 1.542.5 2.906 1.208 4.094 2.125 1.208.896 2.25 1.969 3.125 3.219.896 1.25 1.625 2.625 2.188 4.125.583 1.479 1.01 3.052 1.281 4.719.292 1.646.437 3.323.437 5.031zm-12.5-1.625c0-.583-.062-1.177-.187-1.781-.125-.625-.333-1.188-.625-1.688-.271-.5-.636-.906-1.094-1.219-.458-.333-1.031-.5-1.719-.5-.833 0-1.573.229-2.219.688-.625.438-1.167 1-1.625 1.688-.458.667-.833 1.396-1.125 2.188-.292.792-.51 1.521-.656 2.188l9.25-.875v-.688zm46.594 10.875c0 2.854-.5 5.323-1.5 7.406-.979 2.063-2.333 3.771-4.062 5.125-1.709 1.333-3.719 2.323-6.032 2.969-2.292.625-4.76.938-7.406.938-1.021 0-2.146-.135-3.375-.406-1.208-.271-2.438-.604-3.688-1-1.25-.417-2.458-.854-3.625-1.312-1.146-.479-2.167-.927-3.063-1.344l1.375-12.25c1.771 1.063 3.729 1.875 5.875 2.438 2.167.542 4.292.813 6.375.813.396 0 .875-.01 1.438-.031.563-.042 1.094-.136 1.594-.281.521-.167.958-.406 1.313-.719.354-.313.531-.761.531-1.344 0-.396-.125-.729-.375-1-.25-.292-.573-.521-.969-.688-.396-.188-.844-.323-1.344-.406-.5-.104-.99-.177-1.469-.219-.479-.042-.927-.063-1.344-.063h-1c-1.792 0-3.427-.281-4.906-.844-1.458-.562-2.719-1.354-3.781-2.375-1.042-1.042-1.854-2.292-2.438-3.75-.583-1.479-.875-3.114-.875-4.906 0-2.458.49-4.656 1.469-6.594 1-1.958 2.323-3.615 3.969-4.969 1.667-1.375 3.573-2.427 5.719-3.156 2.146-.729 4.365-1.094 6.656-1.094 1.021 0 2.073.042 3.156.125 1.083.063 2.156.188 3.219.375 1.084.188 2.135.427 3.156.719 1.021.292 1.989.656 2.906 1.094l-1.188 12.688c-1.416-.479-2.906-.875-4.468-1.188-1.542-.333-3.052-.5-4.531-.5-.271 0-.625.01-1.063.031-.417 0-.865.031-1.344.094-.458.042-.927.115-1.406.219-.479.104-.906.25-1.281.437-.375.167-.677.396-.906.688-.229.292-.333.635-.313 1.031.021.458.188.813.5 1.063.333.25.75.438 1.25.563.521.104 1.083.156 1.688.156.625 0 1.24-.01 1.844-.031.604-.042 1.167-.073 1.688-.094.521-.042.948-.052 1.281-.031 1.667.104 3.167.458 4.5 1.063 1.333.604 2.458 1.406 3.375 2.406.937 1 1.646 2.198 2.125 3.594.5 1.375.75 2.896.75 4.563zm34.375-28.063l-.313 13.25-9.312.375-1.125 29-13.187.688-1.188-29-9.312.5.374-14.75 34.063-.063zm-104.375 143.25c0 2.02-.302 3.812-.906 5.374-.604 1.563-1.438 2.938-2.5 4.126-1.042 1.166-2.271 2.156-3.688 2.968-1.417.792-2.937 1.448-4.562 1.969-1.604.5-3.271.875-5 1.125-1.729.229-3.427.354-5.094.375v13.313h-14.563v-6.938c.021-2.25.031-4.479.031-6.688.021-2.229.031-4.468.031-6.718.021-2.25.042-4.573.063-6.969.042-2.542.052-5.083.031-7.625-.021-2.542.031-5.104.156-7.688 2.667-.791 5.333-1.385 8-1.781 2.667-.396 5.417-.593 8.25-.593 1.604 0 3.208.135 4.813.406 1.604.25 3.135.656 4.594 1.218 1.479.563 2.844 1.271 4.094 2.126 1.271.833 2.365 1.833 3.281 3 .917 1.166 1.636 2.5 2.156 4 .542 1.5.813 3.166.813 5zm-13.875 1.062c0-1.354-.417-2.406-1.25-3.156-.813-.771-1.875-1.156-3.188-1.156-.438 0-.896.041-1.375.124-.458.063-.896.146-1.313.25l-.375 9.126c.292.041.573.062.844.062h.844c.75 0 1.469-.125 2.156-.375.708-.25 1.333-.604 1.875-1.063.542-.479.969-1.031 1.281-1.656.333-.646.5-1.364.5-2.156zm43.063 11.188l-1.313 13.874-26.313 2.063 1-44.625h16.25l-2.313 28.688h12.688zm40.874 13.874l-15.499 2-1.875-7.062h-7.125l-1.563 7.062-15.938-1.562 12.438-41.625 17.375-.875 12.187 42.062zm-18.499-14.624l-2.375-10.876-2.313 10.876h4.688zm57.938 1.5c0 2.354-.031 4.687-.094 7-.041 2.291-.114 4.604-.218 6.937l-18-.313c.624-3.687 1.166-7.364 1.624-11.031.459-3.687.688-7.406.688-11.156 0-.271-.01-.708-.031-1.313-.021-.604-.063-1.281-.125-2.031-.063-.771-.156-1.552-.282-2.343-.104-.813-.26-1.553-.468-2.219-.188-.667-.427-1.209-.719-1.625-.271-.438-.604-.656-1-.656-.708 0-1.313.208-1.813.624-.479.417-.885.959-1.218 1.626-.313.645-.563 1.374-.75 2.187-.188.813-.334 1.625-.438 2.437-.083.813-.146 1.584-.187 2.313-.021.708-.031 1.292-.031 1.75-.105 3.687-.188 7.354-.25 11-.063 3.625-.146 7.292-.25 11l-15.938.687c.417-7.354.812-14.666 1.188-21.937.395-7.271.708-14.583.937-21.937l14.75-.75-.125 5c.583-.709 1.208-1.376 1.875-2 .687-.626 1.417-1.157 2.187-1.594.771-.459 1.584-.813 2.438-1.063.875-.271 1.792-.406 2.75-.406 1.771 0 3.323.292 4.656.875 1.334.583 2.479 1.375 3.438 2.375.958 1 1.76 2.187 2.406 3.563.646 1.354 1.167 2.802 1.562 4.343.396 1.542.698 3.157.907 4.844.208 1.667.343 3.313.406 4.937.083 1.626.125 3.198.125 4.719v4.157z" fill="#fff"/><path d="M34.688 65.938l-.313 13.25-9.313.375-1.125 28.999-13.188.688-1.188-29-9.313.5.375-14.75 34.063-.063zm39.781 20.125c0 1.896-.219 3.729-.656 5.5-.438 1.75-1.073 3.396-1.906 4.938-.812 1.542-1.812 2.958-3 4.25-1.167 1.271-2.489 2.365-3.969 3.281-1.458.917-3.052 1.636-4.781 2.157-1.729.5-3.562.75-5.5.75-1.875 0-3.667-.24-5.375-.719-1.687-.479-3.271-1.146-4.75-2-1.479-.875-2.823-1.917-4.031-3.125-1.188-1.229-2.208-2.584-3.063-4.063-.833-1.5-1.49-3.104-1.969-4.812-.458-1.708-.688-3.49-.688-5.344 0-1.813.219-3.583.656-5.313.438-1.75 1.063-3.396 1.875-4.938.833-1.542 1.833-2.958 3-4.25 1.167-1.292 2.469-2.406 3.906-3.344 1.458-.937 3.031-1.667 4.719-2.187 1.688-.521 3.469-.781 5.344-.781 3.021 0 5.771.469 8.25 1.406 2.5.937 4.625 2.281 6.375 4.031 1.771 1.729 3.136 3.833 4.094 6.313.979 2.458 1.469 5.208 1.469 8.25zm-13.875.813c0-.896-.136-1.76-.406-2.594-.25-.854-.625-1.604-1.125-2.25-.5-.667-1.125-1.198-1.875-1.594-.729-.417-1.573-.625-2.531-.625-.979 0-1.854.177-2.625.531-.771.354-1.437.844-2 1.469-.542.604-.958 1.323-1.25 2.156-.292.812-.437 1.677-.437 2.594 0 .875.125 1.75.375 2.625s.625 1.667 1.125 2.375 1.114 1.281 1.844 1.719c.75.438 1.615.656 2.594.656.979 0 1.854-.188 2.625-.563.792-.396 1.458-.917 2-1.563.542-.667.958-1.427 1.25-2.281.292-.854.438-1.739.438-2.656zm53.312-20.875c-.937 7.333-1.739 14.635-2.406 21.906-.667 7.25-1.302 14.552-1.906 21.906l-12.813.938.563-4.812c-.417.479-.906.895-1.469 1.25-.542.354-1.125.645-1.75.874-.625.209-1.271.365-1.938.469-.667.084-1.302.115-1.906.094-1.417-.021-2.75-.292-4-.813-1.25-.541-2.396-1.25-3.437-2.124-1.042-.896-1.979-1.928-2.813-3.094-.833-1.188-1.542-2.427-2.125-3.719-.562-1.313-1-2.646-1.312-4-.292-1.354-.438-2.667-.438-3.938 0-1.875.031-3.813.094-5.813.083-2.021.219-4.042.406-6.063.188-2.021.427-4.021.719-6 .313-1.979.698-3.875 1.156-5.688 2.542.125 5.094.24 7.656.344 2.563.104 5.115.135 7.656.094-.479 1.813-.958 3.635-1.438 5.469-.458 1.813-.875 3.646-1.25 5.5-.375 1.833-.677 3.677-.906 5.531-.229 1.854-.344 3.729-.344 5.625 0 .438.021 1.063.063 1.875.042.813.146 1.615.312 2.406.188.792.458 1.489.813 2.094.375.583.896.875 1.562.875.792 0 1.5-.333 2.125-1 .625-.688 1.177-1.604 1.656-2.75.479-1.146.885-2.469 1.219-3.969.354-1.5.646-3.063.875-4.688.25-1.646.448-3.302.594-4.969.146-1.667.25-3.229.313-4.688.083-1.479.135-2.802.156-3.969.042-1.167.062-2.073.062-2.719 0-.417-.01-.823-.031-1.219-.021-.396-.052-.802-.094-1.219 1.354.042 2.698.073 4.031.094 1.334.021 2.678.031 4.032.031h3.125c1.062-.021 2.125-.063 3.187-.125zm38.5 13.875c0 1.625-.146 3.104-.437 4.438-.271 1.313-.709 2.521-1.313 3.625s-1.385 2.125-2.344 3.063c-.958.938-2.114 1.833-3.468 2.688l7.437 13.251-14.062 2.75-4.813-13.313-3.875.125-.562 13h-13.438c.104-4.75.198-9.479.281-14.188.105-4.708.219-9.438.344-14.188l.125-7.125c.042-2.354.125-4.729.25-7.125 1.459-.542 2.896-.99 4.313-1.344 1.416-.354 2.833-.625 4.25-.812 1.437-.208 2.885-.344 4.344-.406 1.479-.083 2.989-.125 4.531-.125 2.375 0 4.666.333 6.875 1 2.229.646 4.198 1.625 5.906 2.938 1.708 1.313 3.073 2.948 4.094 4.906 1.041 1.958 1.562 4.24 1.562 6.844zm-14 1c0-.875-.125-1.677-.375-2.406-.229-.729-.583-1.354-1.062-1.875-.459-.542-1.042-.958-1.75-1.25-.688-.313-1.5-.469-2.438-.469-.416 0-.823.031-1.219.094-.395.042-.781.114-1.156.219l-.5 11.625h.75c.896 0 1.802-.115 2.719-.344.937-.229 1.771-.583 2.5-1.063.75-.479 1.354-1.094 1.813-1.844.479-.75.718-1.646.718-2.688z" fill="#EC1F46"/></svg>